<svg xmlns="http://www.w3.org/2000/svg" viewBox="0 0 32 32"><rect width="32" height="32" rx="4.906" fill="#111111"/><path fill="#ffffff" d="M9.284 22.043Q6.099 22.043 4.425 20.477Q2.75 18.912 2.75 16.055Q2.75 13.106 4.388 11.532Q6.026 9.957 9.266 9.957Q10.358 9.957 11.214 10.121Q12.069 10.285 12.852 10.576V13.561Q11.286 12.869 9.503 12.869Q7.846 12.869 7.045 13.625Q6.245 14.38 6.245 16.055Q6.245 17.693 7.091 18.412Q7.937 19.131 9.539 19.131Q10.413 19.131 11.241 18.967Q12.069 18.803 12.888 18.457V21.46Q12.105 21.733 11.241 21.888Q10.376 22.043 9.284 22.043Z"/><path fill="#e8521a" d="M16.455 21.861 20.786 15.927 16.618 10.139H20.695L22.843 13.215L25.009 10.139H29.086L24.918 15.927L29.25 21.861H25.118L22.843 18.676L20.586 21.861Z"/></svg>
